<svg xmlns="http://www.w3.org/2000/svg" xmlns:xlink="http://www.w3.org/1999/xlink" width="2665" height="2102.5" contentScriptType="application/ecmascript" contentStyleType="text/css" style="width:2665px;height:2102px;background:#fff" preserveAspectRatio="none" version="1.1" viewBox="0 0 2665 2102" zoomAndPan="magnify"><defs><filter id="b12wurjmcsukn50" width="1" height="1" x="0" y="0"><feFlood flood-color="#FF0" result="flood"/><feComposite in="SourceGraphic" in2="flood" operator="over"/></filter><filter id="b12wurjmcsukn51" width="1" height="1" x="0" y="0"><feFlood flood-color="#0FF" result="flood"/><feComposite in="SourceGraphic" in2="flood" operator="over"/></filter><filter id="b12wurjmcsukn52" width="1" height="1" x="0" y="0"><feFlood flood-color="orange" result="flood"/><feComposite in="SourceGraphic" in2="flood" operator="over"/></filter></defs><g><text x="746.25" y="46.714" fill="#000" font-family="sans-serif" font-size="45" lengthAdjust="spacing" textLength="1140">Keyple - keyple-card-generic-java-lib - 2.0.+ (24/06/2021)</text><rect style="stroke:#000;stroke-width:2.5" width="720" height="245.117" x="955" y="76.602" fill="#DDD" rx="12.5" ry="12.5"/><text x="970" y="125.435" fill="#000" font-family="sans-serif" font-size="35" lengthAdjust="spacing" text-decoration="underline" textLength="220">Colors legend</text><text x="1200" y="125.435" fill="#000" font-family="sans-serif" font-size="35" lengthAdjust="spacing" textLength="10">:</text><ellipse cx="983.75" cy="158.398" fill="#000" rx="6.25" ry="6.25" style="stroke:#000;stroke-width:0"/><text x="1002.5" y="169.458" fill="#000" font-family="sans-serif" font-size="35" lengthAdjust="spacing" text-decoration="underline" textLength="370">External API references</text><text x="1382.5" y="169.458" fill="#000" font-family="sans-serif" font-size="35" lengthAdjust="spacing" textLength="10">:</text><rect style="stroke:#000;stroke-width:0" width="8.75" height="8.75" x="1022.5" y="201.172" fill="#000"/><text x="1035" y="213.481" fill="#000" filter="url(#b12wurjmcsukn50)" font-family="sans-serif" font-size="35" font-weight="bold" lengthAdjust="spacing" textLength="625">calypsonet-terminal-reader-java-api</text><rect style="stroke:#000;stroke-width:0" width="8.75" height="8.75" x="1022.5" y="245.195" fill="#000"/><text x="1035" y="257.505" fill="#000" filter="url(#b12wurjmcsukn51)" font-family="sans-serif" font-size="35" font-weight="bold" lengthAdjust="spacing" textLength="425">keyple-common-java-api</text><rect style="stroke:#000;stroke-width:0" width="8.75" height="8.75" x="1022.5" y="289.219" fill="#000"/><text x="1035" y="301.528" fill="#000" filter="url(#b12wurjmcsukn52)" font-family="sans-serif" font-size="35" font-weight="bold" lengthAdjust="spacing" textLength="572.5">keyple-service-resource-java-lib</text><polygon fill="#F8F9F9" points="40 359.219 610 359.219 627.5 418.242 2622.5 418.242 2622.5 2086.719 40 2086.719 40 359.219" style="stroke:#000;stroke-width:3.75"/><line style="stroke:#000;stroke-width:3.75" x1="40" x2="627.5" y1="418.242" y2="418.242"/><text x="50" y="400.552" fill="#000" font-family="sans-serif" font-size="35" font-weight="bold" lengthAdjust="spacing" textLength="555">org.eclipse.keyple.card.generic</text><rect id="GenericExtensionService" width="1440" height="496.367" x="677.5" y="449.219" fill="#FEFECE" codeLine="56" style="stroke:#d4ac0d;stroke-width:3.75"/><ellipse cx="1166.875" cy="499.453" fill="#ADD1B2" rx="27.5" ry="27.5" style="stroke:#add1b2;stroke-width:2.5"/><path fill="#000" d="M1171.875,490.7031 Q1172.3828,489.4531 1172.9688,488.8281 Q1173.5547,488.2031 1174.2188,488.2031 Q1175.3906,488.2031 1176.1328,488.9063 Q1176.875,489.6094 1176.875,491.25 L1176.875,495.1563 Q1176.875,496.7969 1176.1719,497.5 Q1175.4688,498.2031 1174.375,498.2031 Q1173.3984,498.2031 1172.7734,497.7734 Q1172.1484,497.3438 1171.875,496.2109 Q1171.7578,495.4297 1171.3281,495 Q1170.5469,494.1797 1169.1406,493.7109 Q1167.7344,493.2031 1166.3281,493.2031 Q1164.5703,493.2031 1163.0859,493.9063 Q1161.6406,494.6094 1160.5078,496.1719 Q1159.375,497.7344 1159.375,499.8828 L1159.375,502.1875 Q1159.375,504.7656 1161.4844,506.4844 Q1163.5938,508.2031 1167.3438,508.2031 Q1169.5703,508.2031 1171.1328,507.6953 Q1172.0313,507.4219 1173.0469,506.5234 Q1173.7109,506.0156 1174.0625,505.8594 Q1174.4141,505.7031 1174.8438,505.7031 Q1175.6641,505.7031 1176.25,506.3672 Q1176.875,506.9922 1176.875,507.8906 Q1176.875,508.75 1176.0156,509.7656 Q1174.7656,511.25 1172.7734,512.0703 Q1170.1563,513.2031 1166.9531,513.2031 Q1163.2031,513.2031 1160.1953,511.7188 Q1157.7734,510.5469 1156.0547,508.0078 Q1154.375,505.4688 1154.375,502.4609 L1154.375,499.7266 Q1154.375,496.6016 1155.8594,493.8672 Q1157.3828,491.1328 1160,489.6875 Q1162.6563,488.2031 1165.625,488.2031 Q1167.4219,488.2031 1168.9844,488.8281 Q1170.5469,489.4531 1171.875,490.7031 Z"/><ellipse cx="1230.625" cy="498.203" fill="#84BE84" rx="7.5" ry="7.5" style="stroke:#038048;stroke-width:2.5"/><text x="1268.125" y="492.861" fill="#000" font-family="sans-serif" font-size="30" font-style="italic" lengthAdjust="spacing" textLength="35">&lt;&lt;</text><text x="1303.125" y="492.861" fill="#000" filter="url(#b12wurjmcsukn51)" font-family="sans-serif" font-size="30" font-style="italic" lengthAdjust="spacing" textLength="297.5">KeypleCardExtension</text><text x="1600.625" y="492.861" fill="#000" font-family="sans-serif" font-size="30" font-style="italic" lengthAdjust="spacing" textLength="35">&gt;&gt;</text><text x="1245.625" y="530.596" fill="#000" font-family="sans-serif" font-size="30" font-style="italic" font-weight="bold" lengthAdjust="spacing" textLength="60">final</text><text x="1313.125" y="530.596" fill="#000" font-family="sans-serif" font-size="30" font-style="italic" lengthAdjust="spacing" textLength="345">GenericExtensionService</text><line style="stroke:#d4ac0d;stroke-width:3.75" x1="680" x2="2115" y1="549.688" y2="549.688"/><line style="stroke:#d4ac0d;stroke-width:2.5" x1="680" x2="2115" y1="569.688" y2="569.688"/><ellipse cx="705" cy="597.188" fill="#84BE84" rx="7.5" ry="7.5" style="stroke:#038048;stroke-width:2.5"/><text x="727.5" y="608.235" fill="#000" font-family="sans-serif" font-size="27.5" lengthAdjust="spacing" text-decoration="underline" textLength="480">GenericExtensionService getInstance ()</text><ellipse cx="705" cy="666.367" fill="#84BE84" rx="7.5" ry="7.5" style="stroke:#038048;stroke-width:2.5"/><text x="727.5" y="677.415" fill="#000" font-family="sans-serif" font-size="27.5" lengthAdjust="spacing" textLength="542.5">GenericCardSelection createCardSelection ()</text><ellipse cx="705" cy="700.957" fill="#84BE84" rx="7.5" ry="7.5" style="stroke:#038048;stroke-width:2.5"/><text x="727.5" y="712.004" fill="#000" filter="url(#b12wurjmcsukn52)" font-family="sans-serif" font-size="27.5" lengthAdjust="spacing" textLength="367.5">CardResourceProfileExtension</text><text x="1102.5" y="712.004" fill="#000" font-family="sans-serif" font-size="27.5" lengthAdjust="spacing" textLength="1000">createCardResourceProfileExtension (GenericCardSelection genericCardSelection)</text><ellipse cx="705" cy="735.547" fill="#84BE84" rx="7.5" ry="7.5" style="stroke:#038048;stroke-width:2.5"/><text x="727.5" y="746.594" fill="#000" font-family="sans-serif" font-size="27.5" lengthAdjust="spacing" textLength="607.5">CardTransactionManager createCardTransaction (</text><text x="1335" y="746.594" fill="#000" filter="url(#b12wurjmcsukn50)" font-family="sans-serif" font-size="27.5" lengthAdjust="spacing" textLength="145">CardReader</text><text x="1487.5" y="746.594" fill="#000" font-family="sans-serif" font-size="27.5" lengthAdjust="spacing" textLength="87.5">reader,</text><text x="1582.5" y="746.594" fill="#000" filter="url(#b12wurjmcsukn50)" font-family="sans-serif" font-size="27.5" lengthAdjust="spacing" textLength="127.5">SmartCard</text><text x="1717.5" y="746.594" fill="#000" font-family="sans-serif" font-size="27.5" lengthAdjust="spacing" textLength="65">card)</text><ellipse cx="705" cy="849.316" fill="#84BE84" rx="7.5" ry="7.5" style="stroke:#038048;stroke-width:2.5"/><text x="727.5" y="860.364" fill="#000" font-family="sans-serif" font-size="27.5" lengthAdjust="spacing" textLength="380">String getCommonApiVersion ()</text><ellipse cx="705" cy="883.906" fill="#84BE84" rx="7.5" ry="7.5" style="stroke:#038048;stroke-width:2.5"/><text x="727.5" y="894.954" fill="#000" font-family="sans-serif" font-size="27.5" lengthAdjust="spacing" textLength="365">String getReaderApiVersion ()</text><ellipse cx="705" cy="918.496" fill="#84BE84" rx="7.5" ry="7.5" style="stroke:#038048;stroke-width:2.5"/><text x="727.5" y="929.543" fill="#000" font-family="sans-serif" font-size="27.5" lengthAdjust="spacing" textLength="335">String getCardApiVersion ()</text><line style="stroke:#d4ac0d;stroke-width:2.5" x1="680" x2="1251.25" y1="814.521" y2="814.521"/><text x="1251.25" y="824.524" fill="#000" font-family="sans-serif" font-size="27.5" font-weight="bold" lengthAdjust="spacing" textLength="292.5">KeypleCardExtension</text><line style="stroke:#d4ac0d;stroke-width:2.5" x1="1543.75" x2="2115" y1="814.521" y2="814.521"/><rect id="CardTransactionManager" width="1240" height="396.719" x="80" y="1169.219" fill="#FEFECE" codeLine="69" style="stroke:#d4ac0d;stroke-width:3.75"/><ellipse cx="501.875" cy="1209.219" fill="#B4A7E5" rx="27.5" ry="27.5" style="stroke:#b4a7e5;stroke-width:2.5"/><path fill="#000" d="M504.375,1201.7188 L504.375,1216.7188 L509.375,1216.7188 L510.5859,1216.7188 L511.875,1218.2813 L511.875,1219.2188 L511.875,1220.1563 L510.5859,1221.7188 L509.375,1221.7188 L494.375,1221.7188 L493.1641,1221.7188 L491.875,1220.1563 L491.875,1219.2188 L491.875,1218.2813 L493.1641,1216.7188 L494.375,1216.7188 L499.375,1216.7188 L499.375,1201.7188 L494.375,1201.7188 L493.1641,1201.7188 L491.875,1200.1563 L491.875,1199.2188 L491.875,1198.2813 L493.1641,1196.7188 L494.375,1196.7188 L509.375,1196.7188 L510.5859,1196.7188 L511.875,1198.2813 L511.875,1199.2188 L511.875,1200.1563 L510.5859,1201.7188 L509.375,1201.7188 L504.375,1201.7188 Z"/><ellipse cx="565.625" cy="1207.969" fill="#84BE84" rx="7.5" ry="7.5" style="stroke:#038048;stroke-width:2.5"/><text x="580.625" y="1221.494" fill="#000" font-family="sans-serif" font-size="30" font-style="italic" lengthAdjust="spacing" textLength="347.5">CardTransactionManager</text><line style="stroke:#d4ac0d;stroke-width:3.75" x1="82.5" x2="1317.5" y1="1249.219" y2="1249.219"/><line style="stroke:#d4ac0d;stroke-width:3.75" x1="82.5" x2="1317.5" y1="1269.219" y2="1269.219"/><ellipse cx="107.5" cy="1296.719" fill="#84BE84" rx="7.5" ry="7.5" style="stroke:#038048;stroke-width:2.5"/><text x="130" y="1307.766" fill="#000" font-family="sans-serif" font-size="27.5" lengthAdjust="spacing" textLength="755">CardTransactionManager prepareApdu (String apduCommand)</text><ellipse cx="107.5" cy="1331.309" fill="#84BE84" rx="7.5" ry="7.5" style="stroke:#038048;stroke-width:2.5"/><text x="130" y="1342.356" fill="#000" font-family="sans-serif" font-size="27.5" lengthAdjust="spacing" textLength="752.5">CardTransactionManager prepareApdu (byte[] apduCommand)</text><ellipse cx="107.5" cy="1365.898" fill="#84BE84" rx="7.5" ry="7.5" style="stroke:#038048;stroke-width:2.5"/><text x="130" y="1376.946" fill="#000" font-family="sans-serif" font-size="27.5" lengthAdjust="spacing" textLength="1175">CardTransactionManager prepareApdu (byte cla, byte ins, byte p1, byte p2, byte[] dataIn, Byte le)</text><ellipse cx="107.5" cy="1435.078" fill="#84BE84" rx="7.5" ry="7.5" style="stroke:#038048;stroke-width:2.5"/><text x="130" y="1446.126" fill="#000" font-family="sans-serif" font-size="27.5" lengthAdjust="spacing" textLength="630">CardTransactionManager prepareReleaseChannel ()</text><ellipse cx="107.5" cy="1504.258" fill="#84BE84" rx="7.5" ry="7.5" style="stroke:#038048;stroke-width:2.5"/><text x="130" y="1515.305" fill="#000" font-family="sans-serif" font-size="27.5" lengthAdjust="spacing" textLength="887.5">List&lt;byte[]&gt; processApdusToByteArrays () throws TransactionException</text><ellipse cx="107.5" cy="1538.848" fill="#84BE84" rx="7.5" ry="7.5" style="stroke:#038048;stroke-width:2.5"/><text x="130" y="1549.895" fill="#000" font-family="sans-serif" font-size="27.5" lengthAdjust="spacing" textLength="882.5">List&lt;String&gt; processApdusToHexStrings () throws TransactionException</text><rect id="GenericCardSelection" width="1175" height="451.777" x="1407.5" y="1141.719" fill="#FEFECE" codeLine="79" style="stroke:#d4ac0d;stroke-width:3.75"/><ellipse cx="1819.375" cy="1191.953" fill="#B4A7E5" rx="27.5" ry="27.5" style="stroke:#b4a7e5;stroke-width:2.5"/><path fill="#000" d="M1821.875,1184.4531 L1821.875,1199.4531 L1826.875,1199.4531 L1828.0859,1199.4531 L1829.375,1201.0156 L1829.375,1201.9531 L1829.375,1202.8906 L1828.0859,1204.4531 L1826.875,1204.4531 L1811.875,1204.4531 L1810.6641,1204.4531 L1809.375,1202.8906 L1809.375,1201.9531 L1809.375,1201.0156 L1810.6641,1199.4531 L1811.875,1199.4531 L1816.875,1199.4531 L1816.875,1184.4531 L1811.875,1184.4531 L1810.6641,1184.4531 L1809.375,1182.8906 L1809.375,1181.9531 L1809.375,1181.0156 L1810.6641,1179.4531 L1811.875,1179.4531 L1826.875,1179.4531 L1828.0859,1179.4531 L1829.375,1181.0156 L1829.375,1181.9531 L1829.375,1182.8906 L1828.0859,1184.4531 L1826.875,1184.4531 L1821.875,1184.4531 Z"/><ellipse cx="1883.125" cy="1190.703" fill="#84BE84" rx="7.5" ry="7.5" style="stroke:#038048;stroke-width:2.5"/><text x="1916.875" y="1185.361" fill="#000" font-family="sans-serif" font-size="30" font-style="italic" lengthAdjust="spacing" textLength="35">&lt;&lt;</text><text x="1951.875" y="1185.361" fill="#000" filter="url(#b12wurjmcsukn50)" font-family="sans-serif" font-size="30" font-style="italic" lengthAdjust="spacing" textLength="195">CardSelection</text><text x="2146.875" y="1185.361" fill="#000" font-family="sans-serif" font-size="30" font-style="italic" lengthAdjust="spacing" textLength="35">&gt;&gt;</text><text x="1898.125" y="1223.096" fill="#000" font-family="sans-serif" font-size="30" font-style="italic" lengthAdjust="spacing" textLength="302.5">GenericCardSelection</text><line style="stroke:#d4ac0d;stroke-width:3.75" x1="1410" x2="2580" y1="1242.188" y2="1242.188"/><line style="stroke:#d4ac0d;stroke-width:3.75" x1="1410" x2="2580" y1="1262.188" y2="1262.188"/><ellipse cx="1435" cy="1289.688" fill="#84BE84" rx="7.5" ry="7.5" style="stroke:#038048;stroke-width:2.5"/><text x="1457.5" y="1300.735" fill="#000" font-family="sans-serif" font-size="27.5" lengthAdjust="spacing" textLength="767.5">GenericCardSelection filterByCardProtocol (String cardProtocol)</text><ellipse cx="1435" cy="1358.867" fill="#84BE84" rx="7.5" ry="7.5" style="stroke:#038048;stroke-width:2.5"/><text x="1457.5" y="1369.915" fill="#000" font-family="sans-serif" font-size="27.5" lengthAdjust="spacing" textLength="877.5">GenericCardSelection filterByPowerOnData (String powerOnDataRegex)</text><ellipse cx="1435" cy="1428.047" fill="#84BE84" rx="7.5" ry="7.5" style="stroke:#038048;stroke-width:2.5"/><text x="1457.5" y="1439.094" fill="#000" font-family="sans-serif" font-size="27.5" lengthAdjust="spacing" textLength="587.5">GenericCardSelection filterByDfName (byte[] aid)</text><ellipse cx="1435" cy="1462.637" fill="#84BE84" rx="7.5" ry="7.5" style="stroke:#038048;stroke-width:2.5"/><text x="1457.5" y="1473.684" fill="#000" font-family="sans-serif" font-size="27.5" lengthAdjust="spacing" textLength="590">GenericCardSelection filterByDfName (String aid)</text><ellipse cx="1435" cy="1497.227" fill="#84BE84" rx="7.5" ry="7.5" style="stroke:#038048;stroke-width:2.5"/><text x="1457.5" y="1508.274" fill="#000" font-family="sans-serif" font-size="27.5" lengthAdjust="spacing" textLength="892.5">GenericCardSelection setFileOccurrence (FileOccurrence fileOccurrence)</text><ellipse cx="1435" cy="1531.816" fill="#84BE84" rx="7.5" ry="7.5" style="stroke:#038048;stroke-width:2.5"/><text x="1457.5" y="1542.864" fill="#000" font-family="sans-serif" font-size="27.5" lengthAdjust="spacing" textLength="1110">GenericCardSelection setFileControlInformation (FileControlInformation fileControlInformation)</text><ellipse cx="1435" cy="1566.406" fill="#84BE84" rx="7.5" ry="7.5" style="stroke:#038048;stroke-width:2.5"/><text x="1457.5" y="1577.454" fill="#000" font-family="sans-serif" font-size="27.5" lengthAdjust="spacing" textLength="797.5">GenericCardSelection addSuccessfulStatusWord (int statusWord)</text><rect id="FileOccurrence" width="315" height="258.359" x="1645" y="1789.219" fill="#FEFECE" codeLine="90" style="stroke:#d4ac0d;stroke-width:3.75"/><ellipse cx="1682.5" cy="1829.219" fill="#EB937F" rx="27.5" ry="27.5" style="stroke:#eb93df;stroke-width:2.5"/><path fill="#000" d="M1678.75,1831.7188 L1678.75,1836.7188 L1688.75,1836.7188 L1688.75,1834.2188 L1688.75,1833.0078 L1690.3125,1831.7188 L1691.25,1831.7188 L1692.1875,1831.7188 L1693.75,1833.0078 L1693.75,1834.2188 L1693.75,1841.7188 L1673.75,1841.7188 L1672.5391,1841.7188 L1671.25,1840.1563 L1671.25,1839.2188 L1671.25,1838.2813 L1672.5391,1836.7188 L1673.75,1836.7188 L1673.75,1836.7188 L1673.75,1821.7188 L1673.75,1821.7188 L1672.5391,1821.7188 L1671.25,1820.1563 L1671.25,1819.2188 L1671.25,1818.2813 L1672.5391,1816.7188 L1673.75,1816.7188 L1693.75,1816.7188 L1693.75,1824.2188 L1693.75,1825.4297 L1692.1875,1826.7188 L1691.25,1826.7188 L1690.3125,1826.7188 L1688.75,1825.4297 L1688.75,1824.2188 L1688.75,1821.7188 L1678.75,1821.7188 L1678.75,1826.7188 L1681.25,1826.7188 L1681.25,1825.5078 L1681.25,1825.5078 L1682.8125,1824.2188 L1683.75,1824.2188 L1684.6875,1824.2188 L1686.25,1825.5078 L1686.25,1826.7188 L1686.25,1831.7188 L1686.25,1832.9297 L1684.6875,1834.2188 L1684.6875,1834.2188 L1683.75,1834.2188 L1682.8125,1834.2188 L1681.25,1832.9297 L1681.25,1832.9297 L1681.25,1831.7188 L1678.75,1831.7188 Z"/><ellipse cx="1730" cy="1827.969" fill="#84BE84" rx="7.5" ry="7.5" style="stroke:#038048;stroke-width:2.5"/><text x="1745" y="1841.494" fill="#000" font-family="sans-serif" font-size="30" font-style="italic" lengthAdjust="spacing" textLength="207.5">FileOccurrence</text><line style="stroke:#d4ac0d;stroke-width:3.75" x1="1647.5" x2="1957.5" y1="1869.219" y2="1869.219"/><text x="1660" y="1907.766" fill="#000" font-family="sans-serif" font-size="27.5" lengthAdjust="spacing" textLength="70">FIRST</text><text x="1660" y="1942.356" fill="#000" font-family="sans-serif" font-size="27.5" lengthAdjust="spacing" textLength="67.5">LAST</text><text x="1660" y="1976.946" fill="#000" font-family="sans-serif" font-size="27.5" lengthAdjust="spacing" textLength="65">NEXT</text><text x="1660" y="2011.536" fill="#000" font-family="sans-serif" font-size="27.5" lengthAdjust="spacing" textLength="127.5">PREVIOUS</text><line style="stroke:#d4ac0d;stroke-width:3.75" x1="1647.5" x2="1957.5" y1="2027.578" y2="2027.578"/><rect id="FileControlInformation" width="415" height="258.359" x="2047.5" y="1789.219" fill="#FEFECE" codeLine="96" style="stroke:#d4ac0d;stroke-width:3.75"/><ellipse cx="2085" cy="1829.219" fill="#EB937F" rx="27.5" ry="27.5" style="stroke:#eb93df;stroke-width:2.5"/><path fill="#000" d="M2081.25,1831.7188 L2081.25,1836.7188 L2091.25,1836.7188 L2091.25,1834.2188 L2091.25,1833.0078 L2092.8125,1831.7188 L2093.75,1831.7188 L2094.6875,1831.7188 L2096.25,1833.0078 L2096.25,1834.2188 L2096.25,1841.7188 L2076.25,1841.7188 L2075.0391,1841.7188 L2073.75,1840.1563 L2073.75,1839.2188 L2073.75,1838.2813 L2075.0391,1836.7188 L2076.25,1836.7188 L2076.25,1836.7188 L2076.25,1821.7188 L2076.25,1821.7188 L2075.0391,1821.7188 L2073.75,1820.1563 L2073.75,1819.2188 L2073.75,1818.2813 L2075.0391,1816.7188 L2076.25,1816.7188 L2096.25,1816.7188 L2096.25,1824.2188 L2096.25,1825.4297 L2094.6875,1826.7188 L2093.75,1826.7188 L2092.8125,1826.7188 L2091.25,1825.4297 L2091.25,1824.2188 L2091.25,1821.7188 L2081.25,1821.7188 L2081.25,1826.7188 L2083.75,1826.7188 L2083.75,1825.5078 L2083.75,1825.5078 L2085.3125,1824.2188 L2086.25,1824.2188 L2087.1875,1824.2188 L2088.75,1825.5078 L2088.75,1826.7188 L2088.75,1831.7188 L2088.75,1832.9297 L2087.1875,1834.2188 L2087.1875,1834.2188 L2086.25,1834.2188 L2085.3125,1834.2188 L2083.75,1832.9297 L2083.75,1832.9297 L2083.75,1831.7188 L2081.25,1831.7188 Z"/><ellipse cx="2132.5" cy="1827.969" fill="#84BE84" rx="7.5" ry="7.5" style="stroke:#038048;stroke-width:2.5"/><text x="2147.5" y="1841.494" fill="#000" font-family="sans-serif" font-size="30" font-style="italic" lengthAdjust="spacing" textLength="307.5">FileControlInformation</text><line style="stroke:#d4ac0d;stroke-width:3.75" x1="2050" x2="2460" y1="1869.219" y2="1869.219"/><text x="2062.5" y="1907.766" fill="#000" font-family="sans-serif" font-size="27.5" lengthAdjust="spacing" textLength="37.5">FCI</text><text x="2062.5" y="1942.356" fill="#000" font-family="sans-serif" font-size="27.5" lengthAdjust="spacing" textLength="47.5">FCP</text><text x="2062.5" y="1976.946" fill="#000" font-family="sans-serif" font-size="27.5" lengthAdjust="spacing" textLength="52.5">FMD</text><text x="2062.5" y="2011.536" fill="#000" font-family="sans-serif" font-size="27.5" lengthAdjust="spacing" textLength="187.5">NO_RESPONSE</text><line style="stroke:#d4ac0d;stroke-width:3.75" x1="2050" x2="2460" y1="2027.578" y2="2027.578"/><rect id="TransactionException" width="767.5" height="209.648" x="316.25" y="1812.969" fill="#FEFECE" codeLine="102" style="stroke:#d4ac0d;stroke-width:3.75"/><ellipse cx="514.375" cy="1863.203" fill="#ADD1B2" rx="27.5" ry="27.5" style="stroke:#add1b2;stroke-width:2.5"/><path fill="#000" d="M519.375,1854.4531 Q519.8828,1853.2031 520.4688,1852.5781 Q521.0547,1851.9531 521.7188,1851.9531 Q522.8906,1851.9531 523.6328,1852.6563 Q524.375,1853.3594 524.375,1855 L524.375,1858.9063 Q524.375,1860.5469 523.6719,1861.25 Q522.9688,1861.9531 521.875,1861.9531 Q520.8984,1861.9531 520.2734,1861.5234 Q519.6484,1861.0938 519.375,1859.9609 Q519.2578,1859.1797 518.8281,1858.75 Q518.0469,1857.9297 516.6406,1857.4609 Q515.2344,1856.9531 513.8281,1856.9531 Q512.0703,1856.9531 510.5859,1857.6563 Q509.1406,1858.3594 508.0078,1859.9219 Q506.875,1861.4844 506.875,1863.6328 L506.875,1865.9375 Q506.875,1868.5156 508.9844,1870.2344 Q511.0938,1871.9531 514.8438,1871.9531 Q517.0703,1871.9531 518.6328,1871.4453 Q519.5313,1871.1719 520.5469,1870.2734 Q521.2109,1869.7656 521.5625,1869.6094 Q521.9141,1869.4531 522.3438,1869.4531 Q523.1641,1869.4531 523.75,1870.1172 Q524.375,1870.7422 524.375,1871.6406 Q524.375,1872.5 523.5156,1873.5156 Q522.2656,1875 520.2734,1875.8203 Q517.6563,1876.9531 514.4531,1876.9531 Q510.7031,1876.9531 507.6953,1875.4688 Q505.2734,1874.2969 503.5547,1871.7578 Q501.875,1869.2188 501.875,1866.2109 L501.875,1863.4766 Q501.875,1860.3516 503.3594,1857.6172 Q504.8828,1854.8828 507.5,1853.4375 Q510.1563,1851.9531 513.125,1851.9531 Q514.9219,1851.9531 516.4844,1852.5781 Q518.0469,1853.2031 519.375,1854.4531 Z"/><ellipse cx="578.125" cy="1861.953" fill="#84BE84" rx="7.5" ry="7.5" style="stroke:#038048;stroke-width:2.5"/><text x="593.125" y="1856.611" fill="#000" font-family="sans-serif" font-size="30" font-style="italic" lengthAdjust="spacing" textLength="322.5">&lt;&lt;RuntimeException&gt;&gt;</text><text x="606.875" y="1894.346" fill="#000" font-family="sans-serif" font-size="30" font-style="italic" lengthAdjust="spacing" textLength="295">TransactionException</text><line style="stroke:#d4ac0d;stroke-width:3.75" x1="318.75" x2="1081.25" y1="1913.438" y2="1913.438"/><line style="stroke:#d4ac0d;stroke-width:3.75" x1="318.75" x2="1081.25" y1="1933.438" y2="1933.438"/><ellipse cx="343.75" cy="1960.938" fill="#84BE84" rx="7.5" ry="7.5" style="stroke:#038048;stroke-width:2.5"/><text x="366.25" y="1971.985" fill="#000" font-family="sans-serif" font-size="27.5" lengthAdjust="spacing" textLength="475">TransactionException (String message)</text><ellipse cx="343.75" cy="1995.527" fill="#84BE84" rx="7.5" ry="7.5" style="stroke:#038048;stroke-width:2.5"/><text x="366.25" y="2006.575" fill="#000" font-family="sans-serif" font-size="27.5" lengthAdjust="spacing" textLength="702.5">TransactionException (String message, Throwable cause)</text><path id="GenericExtensionService-to-GenericCardSelection" fill="none" d="M1619.1375,947.1463 C1673.36,1007.4938 1731.2225,1071.8913 1784.8875,1131.6187" codeLine="112" style="stroke:#3498db;stroke-width:2.5;stroke-dasharray:7,7"/><polygon fill="#3498DB" points="1793.463 1141.164 1785.867 1117.743 1785.11 1131.864 1770.988 1131.107 1793.463 1141.164" style="stroke:#3498db;stroke-width:2.5"/><polygon fill="#000" points="1733.354 1053.956 1723.706 1032.225 1712.776 1042.046 1733.354 1053.956" style="stroke:#000;stroke-width:2.5"/><text x="1747.5" y="1057.957" fill="#000" font-family="sans-serif" font-size="32.5" lengthAdjust="spacing" textLength="90">create</text><path id="GenericExtensionService-to-CardTransactionManager" fill="none" d="M1138.7675,947.1463 C1065.3025,1017.1888 986.115,1092.6838 915.505,1160.0038" codeLine="113" style="stroke:#3498db;stroke-width:2.5;stroke-dasharray:7,7"/><polygon fill="#3498DB" points="906.048 1169.021 929.233 1160.733 915.095 1160.396 915.432 1146.257 906.048 1169.021" style="stroke:#3498db;stroke-width:2.5"/><polygon fill="#000" points="1050.953 1053.284 1072.389 1042.998 1062.249 1032.362 1050.953 1053.284" style="stroke:#000;stroke-width:2.5"/><text x="1082.5" y="1057.957" fill="#000" font-family="sans-serif" font-size="32.5" lengthAdjust="spacing" textLength="90">create</text><path id="GenericCardSelection-backto-FileOccurrence" fill="none" d="M1839.345,1629.2337 C1834.0125,1642.5412 1829.1775,1655.9113 1825,1669.2188 C1813.105,1707.1062 1806.8675,1749.7637 1803.7525,1788.7963" codeLine="115" style="stroke:#a80036;stroke-width:2.5"/><ellipse cx="1846.566" cy="1612.585" fill="#FFF" rx="20" ry="20" style="stroke:#a80036;stroke-width:2.5"/><line style="stroke:#a80036;stroke-width:2.5" x1="1838.61" x2="1854.523" y1="1630.935" y2="1594.236"/><line style="stroke:#a80036;stroke-width:2.5" x1="1828.217" x2="1864.915" y1="1604.629" y2="1620.542"/><path id="GenericCardSelection-to-FileOccurrence" fill="none" d="M1915.87,1594.5013 C1894.0825,1656.1863 1871.0825,1721.2963 1851.5375,1776.6313" codeLine="116" style="stroke:#27ae60;stroke-width:2.5;stroke-dasharray:7,7"/><polygon fill="#27AE60" points="1847.165 1789.014 1864.085 1771.126 1851.326 1777.227 1845.226 1764.468 1847.165 1789.014" style="stroke:#27ae60;stroke-width:2.5"/><polygon fill="#000" points="1893.337 1703.945 1907.796 1685.07 1893.94 1680.176 1893.337 1703.945" style="stroke:#000;stroke-width:2.5"/><text x="1920" y="1705.457" fill="#000" font-family="sans-serif" font-size="32.5" lengthAdjust="spacing" textLength="52.5">use</text><path id="GenericCardSelection-backto-FileControlInformation" fill="none" d="M2043.1,1631.0613 C2052.6175,1659.8763 2063.9725,1688.1788 2077.5,1714.2188 C2091.0325,1740.2638 2108.6525,1765.6763 2127.53,1789.1938" codeLine="117" style="stroke:#a80036;stroke-width:2.5"/><ellipse cx="2037.8" cy="1613.564" fill="#FFF" rx="20" ry="20" style="stroke:#a80036;stroke-width:2.5"/><line style="stroke:#a80036;stroke-width:2.5" x1="2043.6" x2="2032" y1="1632.705" y2="1594.424"/><line style="stroke:#a80036;stroke-width:2.5" x1="2018.659" x2="2056.941" y1="1619.364" y2="1607.764"/><path id="GenericCardSelection-to-FileControlInformation" fill="none" d="M2101.8775,1594.5013 C2131.43,1656.4463 2162.6275,1721.8438 2189.0975,1777.3288" codeLine="118" style="stroke:#27ae60;stroke-width:2.5;stroke-dasharray:7,7"/><polygon fill="#27AE60" points="2194.673 1789.014 2194.01 1764.4 2189.29 1777.732 2175.959 1773.012 2194.673 1789.014" style="stroke:#27ae60;stroke-width:2.5"/><polygon fill="#000" points="2172.882 1703.44 2169.777 1679.867 2156.514 1686.195 2172.882 1703.44" style="stroke:#000;stroke-width:2.5"/><text x="2190" y="1705.457" fill="#000" font-family="sans-serif" font-size="32.5" lengthAdjust="spacing" textLength="52.5">use</text><path id="CardTransactionManager-to-TransactionException" fill="none" d="M700,1567.2263 C700,1644.9763 700,1731.6612 700,1799.0963" codeLine="120" style="stroke:#3498db;stroke-width:2.5;stroke-dasharray:7,7"/><polygon fill="#3498DB" points="700 1812.319 710 1789.819 700 1799.819 690 1789.819 700 1812.319" style="stroke:#3498db;stroke-width:2.5"/><polygon fill="#000" points="712.5 1704.658 719.847 1682.045 705.153 1682.045 712.5 1704.658" style="stroke:#000;stroke-width:2.5"/><text x="735" y="1705.457" fill="#000" font-family="sans-serif" font-size="32.5" lengthAdjust="spacing" textLength="77.5">throw</text></g></svg>